<?xml version="1.0" encoding="utf8" standalone="no"?>
<svg fill-rule="evenodd" height="681.28217" viewBox="0 0 8500 11000" width="617.42944" xml:space="preserve" xmlns="http://www.w3.org/2000/svg"><defs><filter id="filter6021"><feGaussianBlur stdDeviation="177.3381"></feGaussianBlur></filter><filter id="filter7430"><feGaussianBlur stdDeviation="26.24133"></feGaussianBlur></filter><filter id="filter3757"><feGaussianBlur stdDeviation="1.11721"></feGaussianBlur></filter><filter height="1.36484" id="filter4533" width="1.08364" x="-.04182" y="-.18242"><feGaussianBlur stdDeviation="45.09831"></feGaussianBlur></filter><linearGradient gradientUnits="userSpaceOnUse" id="linearGradient2624" x1="3166.05856" x2="5754.2084" y1="7870.74899" y2="7904.34439"><stop offset="0" stop-color="#3e63b8" stop-opacity=".47059"></stop><stop offset=".25926" stop-color="#ccdafa" stop-opacity=".69388"></stop><stop offset="1" stop-color="#10307a" stop-opacity=".47059"></stop></linearGradient><radialGradient cx="3614.2805" cy="4013.1587" fx="3044.439" fy="4035.9761" gradientTransform="matrix(.95129,.4367,-.40685,.88627,1879.6646,-1190.3335)" gradientUnits="userSpaceOnUse" id="radialGradient2626" r="1295.8993"><stop offset="0" stop-color="#f7ffff"></stop><stop offset="1" stop-color="#b7f5f8" stop-opacity="0"></stop></radialGradient><radialGradient cx="4399.0596" cy="8487.6436" gradientTransform="matrix(-2.14624,-5.494271e-3,1.6816054e-3,-.65689,13967.214,13013.814)" gradientUnits="userSpaceOnUse" id="radialGradient2628" r="1294.075"><stop offset="0"></stop><stop offset="1" stop-color="#5f5a5a" stop-opacity="0"></stop></radialGradient><radialGradient cx="2392.8984" cy="5985.9971" fx="2487.3374" fy="5904.4326" gradientTransform="matrix(1.17442,-2.3256299e-2,2.0083288e-2,1.01413,-105.70199,488.20653)" gradientUnits="userSpaceOnUse" id="radialGradient2630" r="328.01666"><stop offset="0" stop-color="#fbbb6c"></stop><stop offset="1" stop-color="#53391b"></stop></radialGradient></defs>
 
 














































































<g fill-rule="evenodd" transform="matrix(1.62393,0,0,1.62393,-6061.5862,-2505.7877)"><path d="m6349.7839,1828.9412c-1551.39,0-2810.318,1258.9272-2810.3176,2810.3175 0,1059.4585 587.1104,1982.8499 1453.5959,2461.7661l32.1289,536.4577c64.4744,194.939 703.6198,395.9929 1371.3259,393.3373 624.0447-2.4821 1216.3307-195.3175 1292.4637-393.3373l31.6423-535.971c-88.3404,44.8476-175.1973,85.1599-260.9266,120.7274 1000.0434-430.6238 1700.4049-1425.6383 1700.4051-2582.9802v-35.0499c-19.3565-1538.8459-1271.3499-2775.2676-2810.3176-2775.2676zm-631.8712,5549.5617c20.0888,4.6222 40.1136,8.9551 60.3637,13.1437-20.2812-4.1656-40.5157-8.5956-60.3637-13.1437zm65.7185,14.1172c21.8944,4.4842 43.6427,8.686 65.7186,12.657-22.2114-3.9513-44.0101-8.2434-65.7186-12.657z" fill-rule="evenodd" filter="url(#filter6021)" opacity=".8"></path><g fill-rule="evenodd" transform="translate(1807.0981,-527.631)"><path d="m5754.2084,7385.7117c-447.1149,226.9851-855.4883,325.5234-1262.4881,329.7225-566.3039,5.8428-993.6663-150.1401-1325.6617-330.3116l30.26,509.0931c61.1854,184.9949 655.3476,375.9535 1288.9928,373.4335 592.2109-2.356 1166.742-185.515 1238.9914-373.4335l29.9056-508.504z" fill="url(#linearGradient2624)" opacity=".8"></path><path d="m5175.614,3944.7444a1288.5078,1288.5078 0 1,1 -.1019-16.2063" fill="url(#radialGradient2626)" fill-rule="evenodd" opacity=".8" transform="matrix(2.06993,0,0,2.06993,-3592.5518,-3116.2479)"></path><path d="m5754.2084,7332.4307c-447.1149,226.9851-855.4883,325.5234-1262.4881,329.7225-566.3039,5.8428-993.6663-150.1401-1325.6617-330.3116l.6939,297.9555c16.7846,220.5156 691.2852,490.9312 1324.9304,488.4112 592.2109-2.356 1234.3374-275.2062 1262.186-507.5255l.3395-278.2521z" fill="url(#radialGradient2628)" filter="url(#filter4533)" opacity=".8" transform="matrix(1,0,0,1.07905,0,-615.07913)"></path><g transform="translate(504.59044)"><g transform="matrix(1.35406,7.7539619e-2,-7.7539619e-2,1.35406,-1381.7456,-2964.3014)"><g transform="matrix(1.23705,0,0,1.23705,-533.12693,-187.95896)"><path d="m3095.5853,6537.4478a328.01666,328.01666 0 1,1 -.026-4.1257" fill-rule="evenodd" filter="url(#filter7430)" transform="matrix(.64266,-1.5706845e-3,-1.7076023e-3,.66896,2855.9058,996.32521)"></path><path d="m3095.5853,6537.4478a328.01666,328.01666 0 1,1 -.026-4.1257" fill="url(#radialGradient2630)" fill-rule="evenodd" transform="matrix(.65389,0,0,.65389,2790.578,1043.8261)"></path></g><path d="m5150.0134,6225.7795 8.2129-22.0458c53.6687,2.5609 103.5364,23.8191 151.4654,54.6138-1.8488,5.5972-4.921,10.5123-9.2168,14.7454-6.9888,7.0203-16.2489,13.0771-27.7801,18.1705s-27.3146,10.099-47.3503,15.0169c-31.1087,7.671-52.8517,14.792-65.2289,21.3632s-20.1798,14.1892-23.4082,22.8547c-3.3863,9.0901-2.2566,18.1944 3.3888,27.3131s14.8774,15.9886 27.6948,20.6103c13.5471,4.8845 25.619,5.479 36.2156,1.7834s18.1312-11.3868 22.6028-23.0728l28.0156,12.8479c-8.5312,16.8716-20.9746,27.5867-37.3304,32.1452s-35.4229,2.9111-57.2024-4.9417c-21.9876-7.9283-37.5387-19.173-46.6535-33.7342s-10.934-29.1906-5.459-43.8877c2.7854-7.4761 7.3987-14.1483 13.8402-20.0168s15.5007-11.2269 27.1768-16.0752 30.218-10.5941 55.6245-17.2373c21.1859-5.4669 34.9431-9.3963 41.2716-11.7881s11.8313-5.1057 16.5082-8.1413c-28.6604-30.8269-73.2308-30.3492-112.3876-40.5235z" fill-rule="evenodd" stroke="#000" stroke-width="16.21751"></path></g><g transform="matrix(1.35406,7.7539619e-2,-7.7539619e-2,1.35406,-1359.5877,-2914.592)"><g transform="matrix(1.23705,0,0,1.23705,-1034.8843,-425.27728)"><path d="m3095.5853,6537.4478a328.01666,328.01666 0 1,1 -.026-4.1257" fill-rule="evenodd" filter="url(#filter7430)" transform="matrix(.62937,7.0086588e-4,7.0086588e-4,.64157,2871.5254,1177.8763)"></path><path d="m3095.5853,6537.4478a328.01666,328.01666 0 1,1 -.026-4.1257" fill="url(#radialGradient2630)" fill-rule="evenodd" transform="matrix(.65389,0,0,.65389,2790.578,1043.8261)"></path></g><text fill-rule="evenodd" font-family="Arial" font-size="284.60345" stroke="#000" stroke-width="9.28695" transform="matrix(.83238,-.67525,.8342,.52465,0,0)" x="-2734.9961" xml:space="preserve" y="8273.2402"><tspan stroke-width="9.28695" x="-2734.9961" y="8273.2402">4</tspan></text>




















<path d="m4808.1365,6038.0284-21.7529,15.1042c-41.7114-33.1031-84.1153-68.5256-127.889-87.1925-.8484,4.2284-3.3883,8.813-7.6194,13.7538s-8.7092,8.9215-13.4346,11.9418l-19.28-12.9855c7.3664-6.1891 12.0377-12.7904 14.014-19.8036s1.4187-13.2965-1.6737-18.85l11.3461-6.2471c68.2032,26.9332 118.81,62.8391 166.2895,104.2789z" fill-rule="evenodd" stroke="#000" stroke-width="5.82167"></path></g><g transform="matrix(1.41971,8.1298835e-2,-7.7539619e-2,1.35406,-1510.5144,-2972.9824)"><g transform="matrix(1.06607,0,0,1.06607,-1028.4006,556.37446)"><path d="m3095.5853,6537.4478a328.01666,328.01666 0 1,1 -.026-4.1257" fill-rule="evenodd" filter="url(#filter7430)" transform="matrix(.65389,0,0,.65389,2816.0637,1094.7975)"></path><path d="m3095.5853,6537.4478a328.01666,328.01666 0 1,1 -.026-4.1257" fill="url(#radialGradient2630)" fill-rule="evenodd" transform="matrix(.65389,0,0,.65389,2790.578,1043.8261)"></path></g><path d="m3715.5448,6292.4755-13.2406,15.164c-12.4574-29.9708-17.3455-59.9416-13.0353-89.9124 3.2987-3.922 6.5818-6.9247 9.8495-9.0081 5.3831-3.4962 10.8893-5.5286 16.5185-6.0969s12.3487.2294 20.1589,2.3927c12.1439,3.331 21.5137,4.2492 28.1093,2.7545s12.4954-5.2222 17.7-11.1827c5.4594-6.2526 9.7212-13.8925 12.7855-22.9198s4.0446-17.3451 2.9416-24.9539c-1.1659-8.0417-4.0886-12.196-8.7678-12.4631s-10.5443,3.6007-17.5944,11.6028l-1.0345-18.8313c10.7322-10.9208 19.4224-15.716 26.0705-14.3859s10.9093,8.4598 12.7838,21.3884c1.8921,13.0523.4049,26.8012-4.4616,41.2468s-11.7136,26.7232-20.5406,36.8325c-4.4902,5.1424-9.0652,9.0836-13.7249,11.8236s-9.7625,4.2741-15.3074,4.6018c-5.5452.3277-13.3716-.7171-23.4792-3.1344-8.3921-2.074-14.0317-3.1167-16.9189-3.128s-5.7154.4867-8.4846,1.4943c-2.0504,25.0491 3.4784,46.0594 9.6722,66.7151z" fill-rule="evenodd" stroke="#000" stroke-width="12.45392"></path>
<text fill-rule="evenodd" font-family="Arial" font-size="182.88174" stroke="#000" stroke-width="12.45392" transform="matrix(.15261,.9877,-.86829,.93303,0,0)" x="8977.8213" xml:space="preserve" y="-2731.0867"><tspan stroke-width="12.45392" x="8977.8213" y="-2731.0867">4</tspan></text>




















</g><g transform="matrix(1.3796,7.9002352e-2,-7.9002352e-2,1.3796,-1358.936,-3098.8)"><g transform="matrix(1.17363,0,0,1.17363,-1840.0578,298.10074)"><path d="m3095.5853,6537.4478a328.01666,328.01666 0 1,1 -.026-4.1257" fill-rule="evenodd" filter="url(#filter7430)" transform="matrix(.71341,-1.5727679e-3,-1.6921782e-3,.73812,2647.8705,520.86043)"></path><path d="m3095.5853,6537.4478a328.01666,328.01666 0 1,1 -.026-4.1257" fill="url(#radialGradient2630)" fill-rule="evenodd" transform="matrix(.65389,0,0,.65389,2790.578,1043.8261)"></path></g><path d="m6465.2317,2134.7976h-20.1475c-7.0026-45.2785-4.2423-87.0943 0-128.3845-12.0167,11.4986-16.7304,10.24-30.7425,16.8073v-19.476c19.236-8.1216 24.9517-14.9366 37.9061-33.7088h12.9839c-6.0843,57.8063-10.2474,114.7014 0,164.762zm101.6936,2.2532h-20.1475c3.4672-40.1933 7.7394-79.7827 0-128.3845-12.0167,11.4986-15.3282,10.1652-29.3404,16.7324v-19.476c19.236-8.1216 23.5496-14.8618 36.504-33.6339h12.9839c2.0163,57.2075 5.4603,116.0342 0,164.762z" fill-rule="evenodd" stroke="#000" stroke-width="29.52173" transform="matrix(.75299,.82063,-.66391,.60449,0,0)"></path>
</g><g transform="matrix(1.35406,7.7539619e-2,-7.7539619e-2,1.35406,-1222.9161,-2954.5909)"><g transform="matrix(1.20236,0,0,1.20236,-732.06023,121.62721)"><path d="m3095.5853,6537.4478a328.01666,328.01666 0 1,1 -.026-4.1257" fill-rule="evenodd" filter="url(#filter7430)" transform="matrix(.74285,0,0,.70991,2534.1362,697.08979)"></path><path d="m3095.5853,6537.4478a328.01666,328.01666 0 1,1 -.026-4.1257" fill="url(#radialGradient2630)" fill-rule="evenodd" transform="matrix(.65389,0,0,.65389,2790.578,1043.8261)"></path></g><text fill-rule="evenodd" font-family="Arial" font-size="274.81592" stroke="#000" stroke-width="12.75223" transform="matrix(1.07358,-.47476,0,.93146,0,0)" x="4451.561" xml:space="preserve" y="9459.3477"><tspan stroke-width="12.75223" x="4451.561" y="9459.3477">9</tspan></text>




















</g><g transform="matrix(1.67504,9.5920459e-2,-9.5920459e-2,1.67504,-2814.6133,-5216.4194)"><path d="m3095.5853,6537.4478a328.01666,328.01666 0 1,1 -.026-4.1257" fill-rule="evenodd" filter="url(#filter7430)" transform="matrix(.7324,0,0,.65389,3293.0007,2426.4235)"></path><g fill-rule="evenodd" transform="matrix(.73993,0,0,.73993,5702.3449,-53.1338)"><path d="m3095.5853,6537.4478a328.01666,328.01666 0 1,1 -.026-4.1257" fill="url(#radialGradient2630)" transform="matrix(.88372,0,0,.88372,-2962.1703,3308.0187)"></path><path d="m-1991.8335,9400.6068 4.671-55.4581c-34.2627,6.4379-67.0992,4.683-98.8266-3.4416v-25.5558c28.823-51.2206 66.664-102.0637 110.5413-146.0052l29.2783-3.3069-13.4345,149.3121 34.5759-8.8168-1.08,24.9415-33.4959,9.4311-4.1283,57.624-28.1012,1.2757zm4.3504-84.4555 11.9103-102.6137c-31.0993,28.616-63.4396,71.4343-82.8103,108.3307 21.0251,1.3573 44.4937-4.3409 70.9-5.717z" stroke="#000" stroke-width="13.70469" transform="matrix(1.03671,-.49922,.18049,.87767,0,0)"></path></g></g><g transform="matrix(1.76108,.10085,-.10085,1.76108,-2697.8372,-6010.3508)"><path d="m3095.5853,6537.4478a328.01666,328.01666 0 1,1 -.026-4.1257" fill-rule="evenodd" filter="url(#filter7430)" transform="matrix(.66634,0,0,.69274,1556.0155,2465.5411)"></path><g fill-rule="evenodd" transform="matrix(.67399,0,0,.67399,4204.2207,766.44703)"><path d="m3095.5853,6537.4478a328.01666,328.01666 0 1,1 -.026-4.1257" fill="url(#radialGradient2630)" transform="translate(-3981.9696,2631.7616)"></path><path d="m-1226.9507,9329.9784-35.0802-9.8791c64.2529-42.0224 119.0459-111.6043 156.4467-171.1023l12.851,20.8438c-.8524,21.2367 2.6144,44.1997 10.4007,68.889s19.2118,46.1715 34.2767,64.4454c10.5108,13.0083 26.4082,25.8427 43.7109,35.8476-9.9499,12.165-18.4085,21.3549-29.2643,31.8488-14.5289-6.9196-28.8446-20.9826-43.5113-37.536s-25.8361-35.914-33.5081-58.0826-11.5276-43.837-11.5667-65.0068c-21.9594,34.9652-53.4013,72.2617-104.7554,119.7322z" stroke="#000" stroke-width="14.19187"></path></g></g><g transform="matrix(1.35406,7.7539619e-2,-7.7539619e-2,1.35406,-1312.6471,-2899.1403)"><g transform="matrix(1.2151,0,0,1.2151,-1609.9054,135.42639)"><path d="m3095.5853,6537.4478a328.01666,328.01666 0 1,1 -.026-4.1257" fill-rule="evenodd" filter="url(#filter7430)" transform="matrix(.68788,0,0,.75106,2692.7992,418.43254)"></path><path d="m3095.5853,6537.4478a328.01666,328.01666 0 1,1 -.026-4.1257" fill="url(#radialGradient2630)" fill-rule="evenodd" transform="matrix(.65389,0,0,.65389,2790.578,1043.8261)"></path></g><path d="m-26.83572,9404.9443h-26.00137v-165.6865c-15.58702,14.6485-18.08908,14.9591-36.29941,23.0726v-25.1346c14.54146-6.8373 11.5499-6.8457 22.43201-16.5723s18.58608-19.1638 23.11233-28.3126h16.75644v212.6334z" fill-rule="evenodd" transform="matrix(.87871,-.84361,.4426,.7131,0,0)"></path></g><g transform="matrix(1.35406,7.7539619e-2,-7.7539619e-2,1.35406,-1425.6443,-2855.691)"><g transform="matrix(1.3629,0,0,1.3629,-2502.2065,-272.16373)"><path d="m3095.5853,6537.4478a328.01666,328.01666 0 1,1 -.026-4.1257" fill-rule="evenodd" filter="url(#filter7430)" transform="matrix(.71075,0,0,.76977,2639.2145,295.94446)"></path><path d="m3095.5853,6537.4478a328.01666,328.01666 0 1,1 -.026-4.1257" fill="url(#radialGradient2630)" fill-rule="evenodd" transform="matrix(.65389,0,0,.65389,2790.578,1043.8261)"></path></g><path d="m-6915.0734-5227.1719v21.4092c-43.7544,8.3016-83.3222,7.4144-119.9161,0-.165-5.3626.7013-10.5189 2.5988-15.469 3.0526-8.1677 7.9408-16.2116 14.6647-24.1318s16.4384-17.0777 29.1437-27.473c19.7178-16.1702 33.0418-28.9786 39.972-38.4251s10.3951-18.3771 10.3952-26.7924c-.0001-8.8275-3.1558-16.2733-9.4671-22.3373s-14.5409-9.0956-24.6886-9.0958c-10.7252.0002-19.3054,3.2177-25.7405,9.6527-6.4351,6.4353-9.6939,15.3454-9.7764,26.7305l-22.8942-2.3513c1.5675-17.0777 7.4664-30.0923 17.6966-39.0439s23.9667-13.4269 41.2095-13.4271c17.4078.0002 31.1855,4.8265 41.3333,14.479s15.2215,21.6156 15.2216,35.8882c-.0001,7.2603-1.4852,14.3967-4.4551,21.4092s-7.8996,14.3966-14.7884,22.1517-18.3361,18.3979-34.3413,31.9281c-13.3653,11.2202-21.9455,18.831-25.7405,22.8323s-6.9302,8.0233-9.4052,12.0658c26.5721,10.2586 58.1287,3.9542 88.978,0z" fill-rule="evenodd" stroke="#000" stroke-width="12.75223" transform="matrix(-.93741,-.29727,.52783,-.89938,0,0)"></path>
<text fill-rule="evenodd" font-family="Arial" font-size="280.30823" stroke="#000" stroke-width="12.75223" transform="matrix(-.80497,-.7206,.67611,-.63704,0,0)" x="-7218.8696" xml:space="preserve" y="-2664.7207"><tspan stroke-width="12.75223" x="-7218.8696" y="-2664.7207">3</tspan></text>





















</g><g transform="matrix(1.76768,.10123,-9.8572837e-2,1.72136,-2557.4791,-4874.9041)"><path d="m3095.5853,6537.4478a328.01666,328.01666 0 1,1 -.026-4.1257" fill-rule="evenodd" filter="url(#filter7430)" transform="matrix(.79067,0,0,.6755,2488.2396,2093.3012)"></path><g transform="translate(6.37142,-19.11425)"><g fill-rule="evenodd" transform="matrix(.73993,0,0,.73993,5065.2033,-218.79063)"><path d="m3095.5853,6537.4478a328.01666,328.01666 0 1,1 -.026-4.1257" fill="url(#radialGradient2630)" transform="matrix(.88372,0,0,.88372,-2962.1703,3308.0187)"></path></g><text fill-rule="evenodd" font-family="Arial" font-size="231.36711" stroke="#000" stroke-width="10.40998" transform="matrix(.7425,-1.03811,.63685,.45641,0,0)" x="-2079.502" xml:space="preserve" y="9893.6992"><tspan stroke-width="10.40998" x="-2079.502" y="9893.6992">8</tspan></text>






















</g></g><g transform="matrix(1.35406,7.7539619e-2,-7.7539619e-2,1.35406,-1340.3506,-2939.0178)"><g transform="matrix(1.17363,0,0,1.17363,-1132.8305,-49.14146)"><path d="m3095.5853,6537.4478a328.01666,328.01666 0 1,1 -.026-4.1257" fill-rule="evenodd" filter="url(#filter7430)" transform="matrix(.69527,0,0,.61665,2693.4096,1326.0267)"></path><path d="m3095.5853,6537.4478a328.01666,328.01666 0 1,1 -.026-4.1257" fill="url(#radialGradient2630)" fill-rule="evenodd" transform="matrix(.65389,0,0,.65389,2790.578,1043.8261)"></path></g>
<path d="m4948.4946,6047.6421v-18.8895c34.9121,2.7616 68.6931-2.8684 102.8265-5.8835v15.2863c-10.191,10.8462-20.2909,25.259-30.2997,43.2385s-17.7431,36.4689-23.2025,55.4676c-3.9308,13.3937-6.4421,28.0613-7.5339,44.0028h-20.1998c.2183-12.5931 2.6932-27.8066 7.4247-45.6407s11.5193-35.0311 20.3636-51.5913 18.2526-30.518 28.2251-41.8737c-25.487,4.788-51.2728,7.3589-77.604,5.8835z" fill-rule="evenodd" stroke="#000" stroke-width="16.21751" transform="matrix(1.04474,.10641,-.14082,.94283,0,0)"></path><path d="m4905.9729,5854.4456v18.6252c-35.0822,1.8564-69.8884,3.3022-100.2228-1.9009-.1435-4.6652.6101-9.1511 2.2609-13.4575 2.6556-7.1055 6.9081-14.1034 12.7577-20.9937s14.3008-14.857 25.3539-23.9005c17.1538-14.0675 28.7452-25.2103 34.7742-33.4285s9.0434-15.9874 9.0435-23.3084c-.0001-7.6796-2.7454-14.1571-8.236-19.4326s-12.6501-7.9129-21.4782-7.913c-20.2441,1.1919-27.6707,5.8467-31.6835,25.8275l-16.8815-3.7624c9.2863-25.1981 21.8576-35.0391 48.9956-38.1065 15.1441.0002 27.1303,4.1989 35.9585,12.5963s13.2421,18.8047 13.2422,31.2214c-.0001,6.3161-1.292,12.5245-3.8758,18.6252s-6.8724,12.5245-12.8654,19.2711-15.9517,16.0055-29.8756,27.7763c-11.6274,9.7612-19.0918,16.3823-22.3933,19.8633s-6.029,6.98-8.1822,10.4968c21.2665,5.3463 47.3266,3.5648 73.3078,1.9009z" fill-rule="evenodd" stroke="#000" stroke-width="16.21751" transform="matrix(1.03426,.16336,-.1394,.94485,0,0)"></path></g><g transform="matrix(1.35406,7.7539619e-2,-7.7539619e-2,1.35406,-1373.0382,-2902.5985)"><g transform="matrix(1.23705,0,0,1.23705,-1227.7988,41.04452)"><path d="m3095.5853,6537.4478a328.01666,328.01666 0 1,1 -.026-4.1257" fill-rule="evenodd" filter="url(#filter7430)" transform="matrix(.72618,0,0,.73161,2595.9425,546.64246)"></path><path d="m3095.5853,6537.4478a328.01666,328.01666 0 1,1 -.026-4.1257" fill="url(#radialGradient2630)" fill-rule="evenodd" transform="matrix(.65389,0,0,.65389,2790.578,1043.8261)"></path></g><text fill-rule="evenodd" filter="url(#filter3757)" font-family="Arial" font-size="270.87869" stroke="#000" stroke-width="12.75223" transform="matrix(.84214,-.63542,.49342,.81515,20.27372,3.37895)" x="394.55109" xml:space="preserve" y="8582.9844"><tspan stroke-width="12.75223" x="394.55109" y="8582.9844">3</tspan></text>




















<text fill-rule="evenodd" font-family="Arial" font-size="274.08282" stroke="#000" stroke-width="9.28695" transform="matrix(.94312,-.48834,.36242,.87265,0,0)" x="1393.1356" xml:space="preserve" y="8603.1982"><tspan stroke-width="9.28695" x="1393.1356" y="8603.1982">3</tspan></text>




















</g><g transform="matrix(1.35406,7.7539619e-2,-7.7539619e-2,1.35406,-1347.3092,-2858.7666)"><g transform="matrix(1.33558,0,0,1.33558,-1416.2834,-135.37743)"><path d="m3095.5853,6537.4478a328.01666,328.01666 0 1,1 -.026-4.1257" fill-rule="evenodd" filter="url(#filter7430)" transform="matrix(.76316,0,0,.74002,2471.9132,497.61453)"></path><path d="m3095.5853,6537.4478a328.01666,328.01666 0 1,1 -.026-4.1257" fill="url(#radialGradient2630)" fill-rule="evenodd" transform="matrix(.65389,0,0,.65389,2790.578,1043.8261)"></path></g>
<g transform="matrix(1,0,0,1.08966,0,-601.04298)"><path d="m4682.8416,6743.0678 26.7889,36.19c34.7053-10.2858 69.4106-16.9565 104.116-24.692l13.6519,17.4983c-5.7907,38.8305-16.3651,77.6611-31.1656,116.4917l-20.1596,6.1849-75.2234-86.2767-27.1538,8.3307-13.652-17.4983 21.5222-9.3644-27.9151-35.1562 29.1905-11.708zm42.6935,57.8228 54.6907,61.8301c11.5252-27.7365 18.7533-57.5403 22.8988-83.2095-24.8583,6.2042-49.7925,12.4782-77.5895,21.3794z" fill-rule="evenodd" stroke="#000" stroke-width="8.89668"></path>
<path d="m4711.8679,6891.6124 13.8704,17.1545c-45.493,22.1026-72.4936,54.205-113.4396,88.8646l-11.2246-13.8822c4.5218-17.3699 6.3131-37.9116 5.3737-61.6252s-5.0398-46.2118-12.3015-67.4939c-5.0189-15.0641-12.7123-30.2376-23.0803-45.5204l21.37-20.0737c8.9794,11.5974 20.4973,32.4081 27.7956,52.0954s11.6096,40.3136 12.9336,61.879 4.5512,32.9143.6711,50.5857c24.6143-24.8383 43.3608-43.642 78.0316-61.9838z" fill-rule="evenodd" stroke="#000" stroke-width="8.89668"></path>
</g></g><g transform="matrix(1.35406,7.7539619e-2,-7.7539619e-2,1.35406,-3584.0406,-3517.1311)"><path d="m3095.5853,6537.4478a328.01666,328.01666 0 1,1 -.026-4.1257" fill-rule="evenodd" filter="url(#filter7430)" transform="matrix(.91527,0,0,.95477,3421.3851,1230.5402)"></path><path d="m3095.5853,6537.4478a328.01666,328.01666 0 1,1 -.026-4.1257" fill-rule="evenodd" filter="url(#filter7430)" transform="matrix(.86034,0,0,.91357,3505.855,1400.7975)"></path><g fill-rule="evenodd" transform="matrix(.83376,0,0,.83376,6542.4786,-541.64023)"><path d="m3095.5853,6537.4478a328.01666,328.01666 0 1,1 -.026-4.1257" fill="url(#radialGradient2630)" transform="matrix(1.11628,0,0,1.11628,-3830.8256,2253.0079)"></path><path d="m-835.70735,9781.5944c-11.70527-3.3073-28.25534-13.0606-39.96049-16.3679 20.55089-63.0059 46.37674-121.016 53.14151-184.0219-25.37462,10.6767-35.07135,12.2121-62.18742,14.566l7.63177-28.6742c22.38404-2.2996 26.60618-6.0038 46.33398-14.4185 11.85024-5.0361 23.22843-11.074 32.45962-19.1778 .85626-.7564 1.69148-1.5316 2.5022-2.3257 7.54336,2.1314 17.99366,8.1306 25.53702,10.2618-12.78241,80.8589-31.22031,159.2994-65.45819,240.1582z"></path><text font-family="Arial" font-size="361.14722" stroke="#000" stroke-width="18.95232" transform="matrix(1.01987,0,-.15913,.98052,0,0)" x="801.34808" xml:space="preserve" y="9997.7432"><tspan stroke-width="18.95232" x="801.34808" y="9997.7432">3</tspan></text>




























</g></g></g><path d="m5175.614,3944.7444a1288.5078,1288.5078 0 1,1 -.1019-16.2063" fill="#6e9aff" fill-opacity=".37647" fill-rule="evenodd" opacity=".7" transform="matrix(2.06993,0,0,2.06993,-3592.5518,-3116.2479)"></path></g></g></svg>
