<?xml version="1.0" encoding="utf8" standalone="no"?>
<svg viewBox="0 0 1052.3622 744.09448" xmlns="http://www.w3.org/2000/svg" xmlns:xlink="http://www.w3.org/1999/xlink">
<defs>
<linearGradient id="linearGradient3111">
<stop offset="0"/>
<stop offset="1" stop-opacity="0"/>
</linearGradient>
<linearGradient gradientTransform="scale(.78074,1.28084)" gradientUnits="userSpaceOnUse" id="linearGradient2734" x1="474.51733" x2="574.06854" xlink:href="#linearGradient3111" y1="425.29074" y2="316.37939"/>
<linearGradient gradientTransform="matrix(.94052,0,0,1.06762,-.42491,-1.48853)" gradientUnits="userSpaceOnUse" id="linearGradient2724" x1="388.27634" x2="373.44061" xlink:href="#linearGradient3111" y1="411.84357" y2="360.70889"/>
<linearGradient gradientTransform="matrix(1.10558,0,0,.90823,-1.84891,3.25814)" gradientUnits="userSpaceOnUse" id="linearGradient2750" x1="276.01392" x2="277.87994" xlink:href="#linearGradient3111" y1="373.7132" y2="276.62177"/>
<linearGradient gradientTransform="matrix(1.19028,0,0,.8436,-82.01368,-86.92711)" gradientUnits="userSpaceOnUse" id="linearGradient2754" x1="472.49023" x2="471.54663" xlink:href="#linearGradient3111" y1="379.99759" y2="306.50012"/>
<linearGradient gradientTransform="matrix(1.19028,0,0,.8436,-1.84891,3.25814)" gradientUnits="userSpaceOnUse" id="linearGradient2746" x1="472.49023" x2="471.54663" xlink:href="#linearGradient3111" y1="379.99759" y2="306.50012"/>
<linearGradient gradientTransform="matrix(1.19028,0,0,.8436,-301.9532,-86.92711)" gradientUnits="userSpaceOnUse" id="linearGradient2954" x1="472.49023" x2="471.54663" xlink:href="#linearGradient3111" y1="379.99759" y2="306.50012"/>
<linearGradient gradientTransform="matrix(1.19028,0,0,.8436,139.9814,-84.87160)" gradientUnits="userSpaceOnUse" id="linearGradient2958" x1="472.49023" x2="471.54663" xlink:href="#linearGradient3111" y1="379.99759" y2="306.50012"/>
<linearGradient gradientTransform="matrix(1.41369,-4.448704e-2,0,.84393,-85.68341,-13.34837)" gradientUnits="userSpaceOnUse" id="linearGradient3071" x1="380.84811" x2="601.37744" xlink:href="#linearGradient3111" y1="481.1254" y2="662.61377"/>
<linearGradient gradientUnits="userSpaceOnUse" id="linearGradient3117" x1="198.89827" x2="206.78811" xlink:href="#linearGradient3111" y1="151.96556" y2="109.33275"/>
<linearGradient gradientUnits="userSpaceOnUse" id="linearGradient3121" x1="392.89827" x2="400.78811" xlink:href="#linearGradient3111" y1="143.96556" y2="101.33275"/>
<linearGradient gradientTransform="matrix(1.95392,0,0,1.24394,165.9166,-29.63704)" gradientUnits="userSpaceOnUse" id="linearGradient3125" x1="207.83084" x2="216.07501" xlink:href="#linearGradient3111" y1="145.43411" y2="104.63365"/>
<linearGradient gradientTransform="matrix(1.95392,0,0,1.24394,375.9166,-33.63704)" gradientUnits="userSpaceOnUse" id="linearGradient3129" x1="207.83084" x2="216.07501" xlink:href="#linearGradient3111" y1="145.43411" y2="104.63365"/>
</defs>
<path d="m337.44267,125.30158c-47.72499,1.50184-86.68475,37.0563-89.38945,80.34094-1.32564-.83503-2.65607-1.66612-4.02918-2.44035-6.63522-39.8767-43.83002-69.47412-88.80457-68.05884-49.6575,1.56266-89.97435,40.30479-89.97433,86.46013 0,22.50833 9.63501,42.58744 25.21491,57.13356-.15922,2.12406-.35743,4.22777-.35743,6.38381 0,26.13442 11.95707,49.31199 31.03124,65.43724-.21018,2.50861-.42242,5.01407-.42242,7.56373 0,34.25016 19.34101,63.85446 48.77265,81.00668-.54817,4.49742-.90981,9.05729-.90981,13.67984 0,37.13276 18.29272,69.49264 46.4981,89.59516-1.76384,8.2545-2.72945,16.75417-2.72945,25.42519 0,71.97762 63.71653,128.37607 142.22378,125.90554 76.57131-2.40959 138.89548-59.97309 141.93134-129.59239 12.10281,3.27553 24.97793,4.9221 38.37476,4.50052 61.42667-1.93301 112.46296-45.10644 122.98765-100.12335 8.29335,1.4357 16.88632,2.12636 25.73481,1.84791 57.61872-1.81317 105.54166-41.28078 115.8066-91.71269 5.06082.49104 10.17566.76704 15.43439.60156 50.38726-1.58563 92.73037-33.82551 105.27873-76.15969 54.35369-2.46616 98.22761-44.45442 98.22761-94.42132 0-50.43853-44.69102-89.95403-99.75479-88.22124-42.54903,1.33895-78.79896,26.96043-93.1262,61.79384-3.49152-.19476-7.04582-.2615-10.62535-.14887-1.21891.03835-2.39746.22078-3.60677.2947-12.6206-35.90372-49.27009-61.05784-92.50882-59.69717-43.95593,1.38323-81.07987,29.73546-93.09369,67.34995-4.4957-1.04144-9.14638-1.77088-13.87471-2.25134-9.53794-37.36156-45.87468-64.30569-89.29197-62.93942-43.69749,1.37511-80.2048,30.96946-89.45443,69.28917-2.37128-1.00824-4.76955-1.95913-7.24604-2.79217-7.01853-38.79318-43.84588-67.45009-88.31716-66.05063zm67.19643,309.38666c2.19776,1.04397 4.46835,1.99617 6.75864,2.89811-.22948,1.40596-.50633,2.79943-.68237,4.21952-1.90156-.69118-3.87304-1.25573-5.81633-1.87069-.08474-1.74859-.09509-3.5222-.25994-5.24694z" fill="url(#linearGradient3071)"/>
<path d="m215.0096,147.20501c0,52.19094-42.30912,94.50005-94.50005,94.50005s-94.50004-42.30911-94.50004-94.50005 42.30911-94.50004 94.50004-94.50004 94.50005,42.30911 94.50005,94.50004z" fill="#fff" stroke="#000" stroke-linecap="round" stroke-linejoin="round" stroke-width="2.83805"/>
<path d="m47.87802,205.36894c0,0-12.60925-28.18537-14.09269-44.50322s3.7086-57.11247 3.7086-57.11247 14.09269-34.11912 55.62902-45.98665c28.18537-5.93376 37.08601-5.93376 53.40386-.74172s20.76816,8.15892 20.76816,8.15892-6.67548-2.96688-14.8344,5.93376-25.21849,31.89397-25.96021,72.68858 2.22516,60.07934 2.22516,60.07934-23.73505,25.96021-49.69526,20.76817-31.15225-19.28472-31.15225-19.28472z" fill="#ff7d00" fill-rule="evenodd"/>
<a fill="#fff" transform="matrix(1.06694,0,0,1.06694,-70.05550,-24.08319)">
<path d="m188.39573,99.65598a30.93583,20.16043 0 1,1 -61.87166,0 30.93583,20.16043 0 1,1 61.87166,0z" transform="matrix(1,-.26966,0,1,-2.08556,37.59479)"/>
</a>
<path d="m114.63285,64.44209c0,0-18.543-1.48344-23.73505-.74172s-5.19204,1.48344-5.19204,1.48344" fill="none" stroke="#000" stroke-linecap="round" stroke-width="2.83991"/>
<path d="m110.92424,70.37585-4.45031,10.38408-9.64237-5.93376c0,0-.74171.74172-5.93376,2.96688s-5.19204,4.45032-8.90064,2.22516-4.45031-1.48344-2.96688-5.19204 6.67548-5.19204 6.67548-5.19204" fill="none" stroke="#000" stroke-linecap="round" stroke-width="2.83991"/>
<path d="m406.0758,141.06783c0,51.36628-42.15468,93.00687-94.15511,93.00687s-94.1551-41.64059-94.1551-93.00687 42.15468-93.00687 94.1551-93.00687 94.15511,41.6406 94.15511,93.00687z" fill="#ff7d00" stroke="#000" stroke-linecap="round" stroke-linejoin="round" stroke-width="2.929"/>
<path d="m602.74604,150.55945c0,53.25992-43.1757,96.43562-96.43562,96.43562s-96.43562-43.1757-96.43562-96.43562 43.1757-96.43563 96.43562-96.43563 96.43562,43.1757 96.43562,96.43563z" fill="#fff" stroke="#000" stroke-linecap="round" stroke-linejoin="round" stroke-width="2.90545"/>
<path d="m388,120.09448 16-12 4,18 4,4 4-22c0,0 0-10 6,10s14,40 14,40l-48-38z" fill="url(#linearGradient3121)" fill-rule="evenodd" opacity=".59686"/>
<path d="m483.53037,57.92052c0,0 30.37341-3.03734 43.28212,3.03734s26.57675,12.14937 32.65142,23.53941 12.14938,17.46472 12.14938,34.1701-9.11203,41.00411-6.07469,45.56014 27.33608,12.9087 30.37343,8.35269 3.79667-4.55601 4.55601-16.70539c0-16.70537-.75934-25.8174-6.83402-41.76345-4.55601-12.14937-18.98339-34.92944-38.72612-44.8008-16.70538-9.11203-24.29873-12.9087-39.48544-13.66804s-31.89209,2.27801-31.89209,2.27801z" fill="#00ae00" fill-rule="evenodd"/>
<path d="m814.60069,160.81048c0,56.40519-45.72544,102.13063-102.13063,102.13063s-102.13063-45.72544-102.13063-102.13063 45.72544-102.13063 102.13063-102.13063 102.13063,45.72544 102.13063,102.13063z" fill="#fff" stroke="#000" stroke-linecap="round" stroke-linejoin="round" stroke-width="2.90545"/>
<path d="m680.95761,65.51387c0,0 37.96678,9.87136 66.82153,26.57675s61.50618,42.52279 61.50618,42.52279l-41.00413,85.04558-62.2655,8.35269-71.37755-50.87548-19.74272-46.31947c0,0 8.35269-24.29874 22.78006-39.48545s43.28213-25.81741 43.28213-25.81741z" fill="#ffd900" fill-rule="evenodd"/>
<path d="m1027.2159,166.50555c.0123,57.04285-46.90668,103.29167-104.78846,103.29167s-104.80076-46.24882-104.78841-103.29167c-.01235-57.04286 46.90664-103.29168 104.78841-103.29168s104.80076,46.24882 104.78846,103.29168z" fill="#f00000" stroke="#000" stroke-linecap="round" stroke-linejoin="round" stroke-width="3.21062"/>
<path d="m1018.1027,142.58652c3.7743,18.66196-4.8948,33.79047-19.36307,33.79047s-29.25678-15.12851-33.03111-33.79047 4.89481-33.79046 19.36306-33.79046 29.25682,15.12851 33.03112,33.79046z" fill="#fffffe"/>
<path d="m1004.4346,129.29806 6.0747,17.46471-8.3528-6.07467c0,0 .7594,1.51866-1.5186,6.07467s-5.31537,7.59336-9.11205,6.83403-12.14936-3.03735-12.14936-6.83403 5.31535-11.39002 5.31535-11.39002" fill="none" stroke="#000" stroke-linecap="round" stroke-width="3.00376"/>
<path d="m194,128.09448 16-12 4,18 4,4 4-22c0,0 0-10 6,10s14,40 14,40l-48-38z" fill="url(#linearGradient3117)" fill-rule="evenodd"/>
<path d="m261.83943,219.89847c0,57.30844-46.9467,103.76612-104.8584,103.76612s-104.8584-46.45768-104.8584-103.76612 46.94671-103.76613 104.8584-103.76613 104.8584,46.45768 104.8584,103.76613z" fill="#00b800" stroke="#000" stroke-linecap="round" stroke-linejoin="round" stroke-width="2.78893"/>
<path d="m469.22061,218.80626c0,55.4628-46.38995,100.42428-103.61486,100.42428s-103.61487-44.96148-103.61487-100.42428 46.38996-100.42428 103.61487-100.42428 103.61486,44.96148 103.61486,100.42428z" fill="#fff" stroke="#000" stroke-linecap="round" stroke-linejoin="round" stroke-width="3.11904"/>
<path d="m207.09264,203.76453c0,0 12.0247,0 20.04118-10.02059 15.13647-2.42591 22.54894-16.38765 23.0236-21.13432 8.544-4.74667 5.40354,5.94526 10.41369,7.47471 14.02882,2.00412 11.92863-.00482 11.92863-.00482s-6.01234,12.93566 2.00412,24.96037 19.49458,24.96037 28.7864,34.79877l-70.14409-10.0206-26.05353-26.05352z" fill="url(#linearGradient2954)" fill-rule="evenodd"/>
<path d="m438.78797,151.08514c0,0 0,19.66095-10.92275,34.9528s-63.35195,43.691-63.35195,43.691 6.55365,2.18455-37.13735,4.3691-54.61375-4.3691-54.61375-4.3691l15.29185,50.24465 48.0601,24.03005c0,0 52.4292-4.3691 69.9056-15.29185s52.4292-54.61375 52.4292-54.61375l6.55365-21.8455c0,0 0-17.4764-6.55365-34.9528s-19.66095-26.2146-19.66095-26.2146z" fill="#00009c" fill-rule="evenodd"/>
<path d="m558,132.85638 36.66666-24.28571 8.16668,21.42857 8.16666,4.76191 8.16666-26.19048c0,0 0-11.90476 12.25,11.90476s28.58334,47.61905 28.58334,47.61905l-102-35.2381z" fill="url(#linearGradient3125)" fill-rule="evenodd" opacity=".59791"/>
<path d="m692.13387,230.82126c0,57.23623-48.38617,103.63536-108.07352,103.63536s-108.07352-46.39913-108.07352-103.63536 48.38616-103.63535 108.07352-103.63535 108.07352,46.39913 108.07352,103.63535z" fill="#af350b" stroke="#000" stroke-linecap="round" stroke-linejoin="round" stroke-width="3.09652"/>
<path d="m427.03217,203.76453c0,0 12.0247,0 20.04118-10.02059s7.83427-21.13432 7.83427-21.13432 .1822,3.09726 14.21102,5.10138 23.32063,2.36851 23.32063,2.36851-6.01234,12.93566 2.00412,24.96037 19.49458,24.96037 28.7864,34.79877l-70.14409-10.0206-26.05353-26.05352z" fill="url(#linearGradient2754)" fill-rule="evenodd"/>
<path d="m780,138.85638 18.66666-30.28571 14.16668,17.42857 8.16666,4.76191 16.16666-24.19048c0,0-8-13.90476 4.25,9.90476s32.58334,11.61905 40.58334,41.61905l-102-19.2381z" fill="url(#linearGradient3129)" fill-rule="evenodd" opacity=".59686"/>
<path d="m928.09994,240.65153c0,61.53117-51.33531,111.41205-114.66063,111.41205s-114.66063-49.88088-114.66063-111.41205 51.33531-111.41205 114.66063-111.41205 114.66063,49.88087 114.66063,111.41205z" fill="#fff" stroke="#000" stroke-linecap="round" stroke-linejoin="round" stroke-width="2.93316"/>
<path d="m649.02721,205.82004c0,0 12.0247,0 20.04118-10.02059s7.83427-21.13432 7.83427-21.13432 .1822,3.09726 14.21102,5.10138 23.32063,2.36851 23.32063,2.36851-6.01234,12.93566 2.00412,24.96037 19.49458,24.96037 28.7864,34.79877l-70.14409-10.0206-26.05353-26.05352z" fill="url(#linearGradient2958)" fill-rule="evenodd"/>
<path d="m759.91682,253.75899c0,0 34.9528-34.9528 50.24465-58.98285s19.66095-28.39915 21.8455-41.50645-4.3691-21.8455-4.3691-21.8455 6.55365-4.3691 34.9528,8.7382 34.9528,24.03005 45.87555,39.3219 17.4764,41.50645 15.29185,52.4292-6.55365,24.03005-6.55365,24.03005-15.29185,30.5837-32.76825,48.0601-37.13735,39.3219-48.0601,43.691-39.3219,6.55365-63.35195-4.3691-41.50645-50.24465-41.50645-50.24465l28.39915-39.3219z" fill="#9517a1" fill-rule="evenodd"/>
<path d="m910.08899,222.37234c2.95566,21.53139-8.08941,38.85636-24.66985,38.69642s-32.41757-17.74425-35.37323-39.27563 8.08941-38.85637 24.66985-38.69642 32.41758,17.74424 35.37323,39.27563z" fill="#fff"/>
<path d="m898.48972,221.07836-9.11787-13.65927-11.59447-10.56354" fill="none" stroke="#000" stroke-linecap="round" stroke-width="4.23257"/>
<path d="m893.27952,227.83645c-3.11913-.51986 1.16236,5.72422-3.93687,9.98819-5.61908,3.7441-6.78145.65419-11.15055-5.89946s2.49996-16.2381 2.49996-16.2381l-9.36319-9.98819-8.7382,15.29185" fill="none" stroke="#000" stroke-linecap="round" stroke-width="3.82296"/>
<g transform="matrix(1.09228,0,0,1.09228,-74.58128,-28.15115)">
<path d="m354.48663,301.99554a101.33957,98.91711 0 1,1 -202.67913,0 101.33957,98.91711 0 1,1 202.67913,0z" fill="#fff" stroke="#000" stroke-linecap="round" stroke-linejoin="round" stroke-width="2.66" transform="matrix(1.06685,0,0,1.04832,-16.51962,-12.97769)"/>
<path d="m167.95722,243.45277c0,0-2.42246,4.84492 15.34225,14.53476s53.29411,15.34225 74.28877,16.95722 57.33155-3.22995 67.82887-9.68984 17.76471-13.72727 17.76471-16.95722 14.53476,25.03208 16.95722,41.18182-3.22995,46.83422-6.4599,52.48663-155.84492,39.56685-155.84492,39.56685-4.03743.80748-10.49732-.80749-9.68984-4.03743-9.68984-4.03743-13.72727-13.72728-19.37968-24.2246-12.11231-32.29946-11.30482-44.41176c-2.42245-16.95722 6.4599-41.98931 9.68985-49.25669s11.30481-15.34225 11.30481-15.34225z" fill="#980f00" fill-rule="evenodd"/>
<path d="m548.28343,290.69073a82.76738,81.15241 0 1,1 -165.53476,0 82.76738,81.15241 0 1,1 165.53476,0z" stroke="#000" stroke-linecap="round" stroke-linejoin="round" stroke-width="2.66" transform="matrix(1.24211,0,0,1.22787,-109.4761,-51.70539)"/>
<path d="m803.44922,326.6239a109.81818,114.6631 0 1,1 -219.63635,0 109.81818,114.6631 0 1,1 219.63635,0z" fill="#0000a4" stroke="#000" stroke-linecap="round" stroke-linejoin="round" stroke-width="2.66" transform="matrix(1.03269,0,0,.97564,-29.53977,7.55294)"/>
<path d="m610.45989,247.4902c-1.61497,8.88235-5.6524,23.41711-14.53475,38.75936s-16.95723,33.10695-19.37969,28.26203 4.03744-25.83957 10.49733-38.75935 20.18716-27.45455 23.41711-28.26204z" fill="#fff" fill-rule="evenodd"/>
</g>
<path d="m284.73984,291.9457c0,0 10.37425,0 17.29042-10.02059s5.2693-24.36557 5.2693-24.36557 1.64687,6.32851 13.75018,8.33263 13.35185-3.69208 13.35185-3.69208-8.12365,18.10673.48049,37.44592c14.23067,30.59225 20.00187,44.40674 20.00187,44.40674l-47.66656-26.05353-22.47755-26.05352z" fill="url(#linearGradient2750)" fill-rule="evenodd"/>
<path d="m383.11088,412.18566c0,71.66209-55.64186,129.75569-124.27958,129.75569s-124.27958-58.0936-124.27958-129.75569 55.64186-129.75568 124.27958-129.75568 124.27958,58.0936 124.27958,129.75568z" fill="#a805a8" stroke="#000" stroke-linecap="round" stroke-linejoin="round" stroke-width="3.33161"/>
<path d="m285.76436,305.84655c.00577,13.5942-19.74664,26.27993-44.11447,28.33196s-44.12024-7.307-44.11448-20.90216c-.00576-13.5942 19.74665-26.27993 44.11448-28.33196s44.12024,7.30699 44.11447,20.90216z" fill="#fff"/>
<path d="m238.39932,293.3087c0,0 8.35853,3.7149 12.07343,6.50108l7.42981,5.57235c0,0-12.07343,0-20.43197,1.85746s-22.28942,5.57235-22.28942,5.57235 13.00217-8.35853 20.43197-12.07343 19.50324-8.35854 19.50324-8.35854" fill="none" stroke="#000" stroke-width="3.54989"/>
<path d="m507.19686,293.94982c0,0 12.0247,0 20.04116-10.0206s10.02059-26.05351 10.02059-26.05351-2.00412,8.01646 12.0247,10.02058 20.04118-2.00412 20.04118-2.00412-12.0247,8.01647-4.00824,20.04117 44.09058,44.09059 44.09058,44.09059l-76.15645-10.02059-26.05352-26.05352z" fill="url(#linearGradient2746)" fill-rule="evenodd"/>
<path d="m650.71662,423.79487c.02154,73.10086-58.80459,132.37233-131.37774,132.37233s-131.39927-59.27147-131.37773-132.37233c-.02154-73.10086 58.80458-132.37233 131.37773-132.37233s131.39928,59.27147 131.37774,132.37233z" fill="#fff" stroke="#000" stroke-linecap="round" stroke-linejoin="round" stroke-width="3.00125"/>
<path d="m519.34326,291.47582c-1.96085,0-3.86275.22141-5.80272.3072 57.34773,3.25972 102.84452,47.54532 102.84452,101.82051 0,56.39225-49.07531,102.16185-109.56883,102.16185s-109.60297-45.7696-109.60297-102.16185c0-9.67445 1.53295-18.9814 4.23256-27.85301-8.5385,17.54831-13.48277,37.21222-13.48277,58.06124 0,73.04784 58.85971,132.3018 131.38021,132.30181s131.38022-59.25397 131.3802-132.30181-58.85968-132.33593-131.3802-132.33594z" fill="#e50b00"/>
<path d="m389.05939,381.28708c0,0 14.02882,18.03706 36.07411,34.07s40.08235,26.05351 40.08235,46.09469 6.01235,42.08645 0,52.10704-66.13587-60.12352-66.13587-60.12352l-12.02471-40.08232 2.00412-32.06589z" fill="url(#linearGradient2734)" fill-rule="evenodd"/>
<path d="m310.21325,403.43782c0,0 48.09882-2.00412 58.11941-16.03293l10.02058-14.02882c0,0 2.00412-2.00412 4.00824,22.04529s-16.03294,60.1235-16.03294,60.1235l-56.11529-52.10704z" fill="url(#linearGradient2724)" fill-rule="evenodd"/>
<path d="m479.32482,543.73176c0,81.38993-66.88965,147.36951-149.40221,147.36951s-149.40221-65.97958-149.40221-147.36951 66.88965-147.36951 149.40221-147.36951 149.40221,65.97958 149.40221,147.36951z" fill="#ffda00" stroke="#000" stroke-linecap="round" stroke-linejoin="round" stroke-width="3.6844"/>
<path d="m337.03666,502.51289c.01116,30.43788-23.88125,57.73986-53.35789,60.97234s-53.36904-18.82931-53.35788-49.26963c-.01116-30.43788 23.88124-57.73986 53.35788-60.97234s53.36905,18.8293 53.35789,49.26963z" fill="#fff"/>
<path d="m285.86947,483.13674c-2.18455,10.92275-4.3691,8.7382-8.7382,21.8455s-2.18455,17.4764-6.55365,30.5837" fill="none" stroke="#000" stroke-linecap="round" stroke-width="6.82672"/>
<path d="m36.87494,119.78551c0,0 4.67709-22.28805 23.81065-42.25903 21.6847-15.00582 31.60578-17.76424 53.29049-19.63997s28.91292,1.87573 28.91292,1.87573-47.05436-.11034-68.73907,18.64694c-20.4091,12.79908-37.27499,41.37634-37.27499,41.37634z" fill="#fff" fill-opacity=".71351" fill-rule="evenodd"/>
<path d="m195.56947,529.25663c0,0 7.18371-43.97298 36.57159-83.3745 33.30627-29.60557 48.54442-35.04776 81.85068-38.74847s44.40836,3.70071 44.40836,3.70071-72.27241-.2177-105.57868,36.78926c-31.34707,25.25181-57.25195,81.633-57.25195,81.633z" fill="#fff" fill-opacity=".71351" fill-rule="evenodd"/>
<path d="m145.92399,400.12762c0,0 1.09129-31.01745 16.91122-60.54133 19.14572-23.03027 28.56013-27.95129 49.7997-33.0281s29.0174-.78455 29.0174-.78455-46.75517,5.30002-65.30262,33.45986c-18.23064,19.86511-30.4257,60.89412-30.4257,60.89412z" fill="#fff" fill-opacity=".71351" fill-rule="evenodd"/>
<path d="m344.866,274.3717c0,0-.86422-17.35497 28.09811-47.10667 30.10772-20.62367 42.42-23.00888 67.85218-21.09213s32.35104,10.06916 32.35104,10.06916-53.69747-11.33597-85.14106,15.72782c-27.86519,17.13754-43.16027,42.40182-43.16027,42.40182z" fill="#fff" fill-opacity=".52432" fill-rule="evenodd"/>
<path d="m595.45963,260.09846c0,0-15.44932-.6993 17.9697-29.84539 33.6294-18.6764 46.72956-19.49183 73.05112-13.45745s32.65944,16.28281 32.65944,16.28281-54.78927-20.96202-90.50661,4.77463c-30.91427,15.08595-33.17365,22.2454-33.17365,22.2454z" fill="#fff" fill-opacity=".71351" fill-rule="evenodd"/>
<path d="m516.54297,169.97564c0,0-13.0706-.52308 15.20293-22.32483 28.45151-13.97025 39.53465-14.5802 61.80349-10.06638s27.63091,12.17979 27.63091,12.17979-46.35342-15.67992-76.57139,3.5715c-26.15443,11.28454-28.06594,16.63992-28.06594,16.63992z" fill="#fff" fill-opacity=".71351" fill-rule="evenodd"/>
<path d="m254.34649,82.81283c0,0-12.7676-.88365 16.89603-19.70805 29.13958-11.7377 40.05976-11.94097 61.48923-7.15995s26.00263,11.88095 26.00263,11.88095-44.04574-15.63398-75.3882.82337c-26.648,9.3815-28.99969,14.16369-28.99969,14.16369z" fill="#fff" fill-opacity=".71351" fill-rule="evenodd"/>
<path d="m68.82858,219.50263c0,0-11.57318,6.96221.7242-34.50695 16.80058-32.55376 26.02888-39.67048 47.75847-47.3606s30.61584-1.96558 30.61584-1.96558-48.72121,8.7706-64.11349,48.42826c-16.30933,28.13155-14.98501,35.40487-14.98501,35.40487z" fill="#fff" fill-opacity=".54054" fill-rule="evenodd"/>
<path d="m879.21645,86.9795c0,0-12.35329-4.30234 21.03925-16.93744 31.28489-5.09046 42.06622-2.45026 62.05927,8.34577s22.89353,19.69022 22.89353,19.69022-39.78842-28.48486-74.29953-18.85539c-28.30591,3.18903-31.69252,7.75685-31.69252,7.75685z" fill="#fff" fill-opacity=".55135" fill-rule="evenodd"/>
<path d="m645.23232,97.30461c0,0 14.3267-18.07458 41.74384-27.72443 27.73137-4.0494 38.61986-2.19396 60.59967,5.61152s27.3892,14.35892 27.3892,14.35892-45.86344-20.71188-75.23814-13.27539c-25.5201,2.61575-54.49457,21.02938-54.49457,21.02938z" fill="#fff" fill-opacity=".71351" fill-rule="evenodd"/>
<path d="m319.86932,687.73349c0,0 41.14304,3.91839 64.65334-5.87757s56.81656-39.18385 68.57171-58.77577 25.4695-47.0206 25.4695-64.65333 0-45.06141-5.87758-56.81656l-13.71434-27.4287c0,0 11.75515,37.22466 7.83677,62.69415s-9.79596,45.06141-27.42869,78.36768c-21.55111,31.34707-27.42868,39.18383-50.93899,56.81657-33.30626,17.63273-68.57172,15.67353-68.57172,15.67353z" fill-opacity=".22703" fill-rule="evenodd"/>
<path d="m496.19659,556.53838c0,0 41.14304,3.5602 64.65334-5.34029s56.81657-35.60198 68.57172-53.40297 25.46949-42.72236 25.46949-58.74325 0-40.94227-5.87757-51.62286l-13.71435-24.92139c0,0 11.75516,33.82189 7.83677,56.96317s-9.79596,40.94225-27.42868,71.20394c-21.55111,28.48157-27.42869,35.60196-50.93899,51.62286-33.30626,16.02089-68.57173,14.24079-68.57173,14.24079z" fill-opacity=".22703" fill-rule="evenodd"/>
<path d="m660.76872,449.26891c39.18383-3.91838 39.32898-.53728 65.16128-8.99002s33.04019-22.05592 45.95635-38.96143 27.985-40.57324 27.985-55.78821 0-38.8827-6.45808-49.02602l-15.06885-23.66773c0,0 12.91616,32.12051 8.61078,54.09768s-10.76347,38.88268-30.1377,67.62207c-23.67961,27.04883-16.42334,25.97427-42.25565,41.18924-36.59578,15.21497-53.79313,13.52442-53.79313,13.52442z" fill-opacity=".22703" fill-rule="evenodd"/>
<path d="m790.07539,355.22769c39.18384-3.91838 39.32898-.53728 65.16128-8.99002s38.91777-27.93349 51.83392-44.839 22.10743-34.69567 22.10743-49.91064 0-38.8827-6.45808-49.02602l-15.06885-23.66773c0,0 12.91617,32.12051 8.61078,54.09769s-10.76347,38.88267-30.13769,67.62206c-21.72043,21.17125-18.38254,18.1375-44.21485,33.35248-36.59578,15.21496-51.83394,21.36118-51.83394,21.36118z" fill-opacity=".34054" fill-rule="evenodd"/>
<path d="m1019.9379,136.39571c0-2e-005 3.699,34.42901-6.4171,54.40894s-20.92203,34.47416-47.37752,56.86657c-18.41996,11.97591-22.88342,16.96429-30.1741,20.78736 0,0 38.03517-6.57256 42.83766-10.17181 17.0244-12.75904 37.95186-31.43805 42.08676-46.08035s10.5922-37.43092 7.1339-48.94758-8.0896-26.86313-8.0896-26.86313z" fill-opacity=".22703" fill-rule="evenodd"/>
<path d="m92.97359,313.00062c0,0-1.0327-35.20967 4.76773-50.01794s15.74296-27.02725 22.88891-32.92945 20.6087-9.00783 20.6087-9.00783-19.05588,15.7392-30.44946,43.18104-17.81588,48.77418-17.81588,48.77418z" fill="#fff" fill-opacity=".55135" fill-rule="evenodd"/>
<path d="m763.25094,149.20489c0,0-12.35329-4.30233 21.03925-16.93744 31.28489-5.09046 42.06622-2.45026 62.05927,8.34577s22.89353,19.69022 22.89353,19.69022-39.78842-28.48487-74.29953-18.85539c-28.30591,3.18902-31.69252,7.75684-31.69252,7.75684z" fill="#fff" fill-opacity=".55135" fill-rule="evenodd"/>
</svg>
